<?xml version="1.0" standalone="no"?>
<!DOCTYPE svg PUBLIC "-//W3C//DTD SVG 20010904//EN"
 "http://www.w3.org/TR/2001/REC-SVG-20010904/DTD/svg10.dtd">
<svg version="1.0" xmlns="http://www.w3.org/2000/svg"
 width="512.000000pt" height="512.000000pt" viewBox="0 0 512.000000 512.000000"
 preserveAspectRatio="xMidYMid meet">

<g transform="translate(0.000000,512.000000) scale(0.100000,-0.100000)"
fill="#000000" stroke="none">
<path d="M2830 4759 c-475 -54 -676 -107 -750 -197 -49 -60 -60 -115 -60 -307
l0 -172 46 -6 c55 -6 77 -25 101 -91 10 -26 23 -49 28 -50 6 0 16 20 24 45 12
42 18 48 55 59 58 17 122 65 153 113 15 23 29 44 30 46 2 3 9 -1 15 -7 20 -20
112 -15 139 7 23 19 24 19 5 40 -25 28 -78 27 -124 -1 -31 -19 -35 -20 -29 -4
4 10 7 26 7 36 0 12 19 27 54 44 72 35 149 120 171 187 13 39 16 71 12 126 -6
85 -6 85 86 54 136 -47 231 -159 267 -316 7 -27 14 -56 16 -63 6 -19 97 32
135 75 22 26 28 40 23 61 -7 30 -57 82 -79 82 -19 0 -19 3 4 48 29 57 35 103
18 144 -12 29 -22 37 -60 47 -52 12 -175 13 -287 0z"/>
<path d="M3622 4268 c-49 -79 -152 -361 -137 -376 2 -3 7 1 9 9 3 8 21 62 40
121 19 58 53 143 76 188 42 84 49 118 12 58z"/>
<path d="M2890 4252 c-20 -17 -23 -24 -14 -39 23 -37 174 -38 162 -1 -7 21
-52 48 -88 54 -27 4 -42 1 -60 -14z"/>
<path d="M2795 4040 c23 -90 21 -99 -17 -79 -16 9 -19 8 -16 -2 4 -13 64 -36
72 -28 6 7 -46 199 -54 199 -5 0 2 -40 15 -90z"/>
<path d="M2993 4074 c-27 -29 -86 -33 -121 -8 -13 9 -26 13 -29 10 -11 -10 28
-45 62 -56 45 -15 98 7 120 49 19 38 1 41 -32 5z"/>
<path d="M2605 4060 c-28 -30 -51 -33 -101 -11 -59 27 -72 26 -48 0 22 -25 74
-49 104 -49 22 0 80 50 80 69 0 17 -15 13 -35 -9z"/>
<path d="M2020 4010 c67 -36 126 -99 142 -151 6 -22 15 -39 20 -39 13 0 9 18
-16 68 -37 72 -133 152 -183 152 -10 0 7 -14 37 -30z"/>
<path d="M2646 3922 c-3 -6 6 -24 20 -41 29 -35 76 -42 110 -17 28 21 10 31
-20 11 -32 -21 -62 -12 -86 27 -10 16 -21 25 -24 20z"/>
<path d="M1082 3855 c4 -4 51 -27 105 -49 86 -37 164 -80 256 -140 15 -10 27
-14 27 -8 0 15 -129 93 -240 146 -90 42 -163 68 -148 51z"/>
<path d="M2475 3503 c108 -101 239 -152 331 -129 26 7 26 7 20 79 -12 125 12
112 -218 112 l-200 0 67 -62z"/>
<path d="M882 3080 c3 -8 69 -169 147 -358 78 -188 158 -384 178 -434 20 -51
38 -87 40 -81 6 18 -337 858 -359 878 -8 7 -9 6 -6 -5z"/>
<path d="M3264 2675 c3 -22 10 -101 16 -175 13 -168 31 -362 35 -375 2 -5 4
10 4 35 0 72 -45 540 -54 548 -4 4 -5 -11 -1 -33z"/>
<path d="M1767 2560 c-4 -58 -10 -162 -13 -232 l-7 -128 -41 -11 c-64 -17
-310 -110 -321 -121 -14 -15 5 -9 170 52 178 66 270 90 370 97 73 5 83 3 109
-18 39 -31 96 -152 96 -204 l-1 -40 -21 48 c-11 26 -24 47 -29 47 -10 0 -3
-18 51 -135 78 -168 110 -275 82 -275 -17 0 -139 137 -221 248 -46 62 -86 110
-89 108 -8 -9 182 -257 241 -314 36 -36 61 -53 73 -50 32 6 22 80 -26 188 -33
76 -42 108 -43 161 -2 53 -9 79 -40 142 -21 43 -48 84 -61 92 -37 24 -105 28
-196 11 -46 -8 -84 -15 -85 -13 0 1 3 99 7 217 8 229 5 304 -5 130z"/>
<path d="M4056 2462 c-43 -75 -142 -244 -219 -375 -76 -131 -137 -240 -134
-243 6 -6 72 103 275 452 160 276 175 304 165 304 -5 0 -44 -62 -87 -138z"/>
<path d="M863 2203 c15 -2 37 -2 50 0 12 2 0 4 -28 4 -27 0 -38 -2 -22 -4z"/>
<path d="M778 2193 c12 -2 30 -2 40 0 9 3 -1 5 -23 4 -22 0 -30 -2 -17 -4z"/>
<path d="M883 2173 c9 -2 25 -2 35 0 9 3 1 5 -18 5 -19 0 -27 -2 -17 -5z"/>
<path d="M783 2163 c15 -2 37 -2 50 0 12 2 0 4 -28 4 -27 0 -38 -2 -22 -4z"/>
<path d="M787 2143 c18 -2 50 -2 70 0 21 2 7 4 -32 4 -38 0 -55 -2 -38 -4z"/>
<path d="M3323 2055 c0 -27 2 -38 4 -22 2 15 2 37 0 50 -2 12 -4 0 -4 -28z"/>
<path d="M1676 2055 c-63 -82 -82 -173 -50 -240 20 -43 46 -60 142 -92 42 -14
92 -39 110 -54 24 -22 43 -29 72 -29 22 0 40 5 40 10 0 6 -18 10 -41 10 -31 0
-47 6 -68 28 -34 33 -69 123 -85 215 -6 37 -14 66 -17 62 -11 -10 11 -123 35
-189 l25 -66 -37 19 c-20 10 -45 27 -54 38 -22 24 -48 97 -48 134 0 16 -5 29
-10 29 -16 0 -1 -79 24 -133 l23 -47 -21 6 c-32 10 -64 33 -71 52 -32 79 -22
144 35 226 43 61 39 78 -4 21z"/>
<path d="M3333 1945 c0 -27 2 -38 4 -22 2 15 2 37 0 50 -2 12 -4 0 -4 -28z"/>
<path d="M3346 1805 c9 -159 25 -365 47 -608 20 -219 21 -246 7 -242 -193 59
-502 88 -855 80 -360 -9 -574 -41 -732 -111 -56 -24 -103 -67 -103 -92 0 -8
13 -37 30 -64 16 -26 30 -53 30 -58 0 -6 -42 -10 -102 -10 -105 0 -387 -15
-490 -26 l-58 -6 0 -79 c0 -75 1 -79 23 -79 37 0 289 28 514 56 l212 27 43
-39 c24 -22 56 -49 73 -61 l30 -21 -40 -7 c-178 -29 -275 -60 -275 -89 0 -39
132 -76 370 -103 221 -24 859 -24 1080 0 266 30 381 66 363 113 -7 18 -93 49
-180 64 l-71 13 57 38 c98 65 239 233 257 305 10 40 -22 81 -86 111 -38 18
-60 34 -60 45 0 30 -61 679 -75 803 -10 88 -13 99 -9 40z m-152 -859 c42 -17
85 -73 93 -119 l5 -35 45 20 c60 27 87 18 107 -33 10 -23 13 -45 9 -50 -17
-15 -152 -51 -268 -69 -415 -67 -996 -46 -1281 45 -101 32 -109 37 -96 61 29
55 98 78 151 51 30 -15 30 -15 48 21 50 102 198 87 281 -27 l28 -38 28 23 c49
43 129 25 178 -38 l18 -23 26 33 c30 38 72 62 110 62 26 0 26 1 11 18 -28 31
-20 35 53 28 64 -7 72 -5 107 18 45 31 95 34 122 7 19 -19 20 -19 43 6 46 50
118 66 182 39z"/>
<path d="M4296 1369 c-116 -33 -316 -122 -303 -135 2 -2 42 14 89 36 90 42
257 100 288 100 10 0 22 5 25 10 9 15 -21 11 -99 -11z"/>
</g>
</svg>
